<?xml version="1.0" encoding="utf-8"?>
<!-- Generator: Adobe Illustrator 19.2.1, SVG Export Plug-In . SVG Version: 6.00 Build 0)  -->
<svg version="1.1" id="Layer_1" xmlns="http://www.w3.org/2000/svg" xmlns:xlink="http://www.w3.org/1999/xlink" x="0px" y="0px"
	 width="500px" height="1500px" viewBox="0 0 500 1500" style="enable-background:new 0 0 500 1500;" xml:space="preserve">
<style type="text/css">
	.st0{fill:#67DDE0;}
	.st1{fill:#F28C13;}
	.st2{fill:#FFB957;}
	.st3{fill:none;stroke:#4D5152;stroke-width:2;stroke-miterlimit:10;}
	.st4{fill:#FFFFFF;}
	.st5{fill:#ACF0F2;}
	.st6{fill:none;stroke:#4D5152;stroke-width:2;stroke-linecap:round;stroke-miterlimit:10;}
	.st7{fill:none;stroke:#4D5152;stroke-width:2;stroke-linejoin:round;stroke-miterlimit:10;}
	.st8{fill:#91DC5A;}
	.st9{fill:#67D964;}
	.st10{fill:#B1B1B1;}
	.st11{fill:#8D8D8D;}
	.st12{opacity:0.25;}
	.st13{fill:#2F477A;}
	.st14{fill:#B03E34;}
	.st15{fill:#448ABE;}
	.st16{fill:#5D5D5D;}
	.st17{fill:#111111;}
	.st18{fill:#F2F2F2;}
	.st19{fill:#28AD07;}
	.st20{fill:#E3552D;}
	.st21{fill:#FFD200;}
	.st22{fill:#4D5152;}
	.st23{fill:#FBB758;}
	.st24{fill:#77CCD4;}
</style>
<g>
	<polygon class="st0" points="140.3,32.5 96.8,76 53.2,49.4 9.7,92.9 9.7,1 140.3,1 	"/>
	<polygon class="st1" points="53.2,126.8 9.7,126.8 9.7,92.9 53.2,49.4 	"/>
	<polygon class="st1" points="53.2,49.4 53.2,126.8 96.8,126.8 96.8,76 	"/>
	<polygon class="st2" points="140.3,32.5 96.8,76 96.8,126.8 140.3,126.8 	"/>
	<rect x="9.7" y="1" class="st3" width="130.6" height="125.8"/>
	<g>
		<g>
			<line class="st3" x1="96.8" y1="76" x2="140.3" y2="32.5"/>
			<line class="st3" x1="53.2" y1="49.4" x2="96.8" y2="76"/>
			<line class="st3" x1="9.7" y1="92.9" x2="53.2" y2="49.4"/>
		</g>
		<g>
			<circle class="st4" cx="9.7" cy="92.9" r="9.7"/>
			<circle class="st3" cx="9.7" cy="92.9" r="9.7"/>
		</g>
		<g>
			<circle class="st4" cx="53.2" cy="49.4" r="9.7"/>
			<circle class="st3" cx="53.2" cy="49.4" r="9.7"/>
		</g>
		<g>
			<circle class="st4" cx="96.8" cy="76" r="9.7"/>
			<circle class="st3" cx="96.8" cy="76" r="9.7"/>
		</g>
		<g>
			<circle class="st4" cx="140.3" cy="32.5" r="9.7"/>
			<circle class="st3" cx="140.3" cy="32.5" r="9.7"/>
		</g>
	</g>
	<g>
		<line class="st3" x1="46" y1="15.5" x2="41.1" y2="15.5"/>
		<line class="st3" x1="36.3" y1="15.5" x2="31.5" y2="15.5"/>
		<line class="st3" x1="26.6" y1="15.5" x2="21.8" y2="15.5"/>
	</g>
</g>
<g>
	<g>
		<path class="st5" d="M287.1,71.4c0,0,7,5.5,12.1,7.3c7.3,2.4,7.3,12.1,7.3,12.1v4.8h-53.2v-4.8c0,0,0-9.7,7.3-12.1
			c5.1-1.7,12.1-7.3,12.1-7.3"/>
		<path class="st2" d="M292,55.7c0,8.5-4.7,15.7-12.1,15.7c-7.3,0-12.1-7.3-12.1-15.7s2.4-13.3,12.1-13.3
			C289.5,42.4,292,47.2,292,55.7z"/>
		<path class="st3" d="M292,55.7c0,8.5-4.7,15.7-12.1,15.7c-7.3,0-12.1-7.3-12.1-15.7s2.4-13.3,12.1-13.3
			C289.5,42.4,292,47.2,292,55.7z"/>
		<g>
			<path class="st6" d="M287.1,71.4c0,0,7,5.5,12.1,7.3c7.3,2.4,7.3,12.1,7.3,12.1v4.8h-53.2v-4.8c0,0,0-9.7,7.3-12.1
				c5.1-1.7,12.1-7.3,12.1-7.3"/>
		</g>
	</g>
	<g>
		<path class="st5" d="M190.4,71.4c0,0,7,5.5,12.1,7.3c7.3,2.4,7.3,12.1,7.3,12.1v4.8h-53.2v-4.8c0,0,0-9.7,7.3-12.1
			C169,77,176,71.4,176,71.4"/>
		<path class="st2" d="M195.2,55.7c0,8.5-4.7,15.7-12.1,15.7S171,64.2,171,55.7s2.4-13.3,12.1-13.3S195.2,47.2,195.2,55.7z"/>
		<path class="st3" d="M195.2,55.7c0,8.5-4.7,15.7-12.1,15.7S171,64.2,171,55.7s2.4-13.3,12.1-13.3S195.2,47.2,195.2,55.7z"/>
		<g>
			<path class="st6" d="M190.4,71.4c0,0,7,5.5,12.1,7.3c7.3,2.4,7.3,12.1,7.3,12.1v4.8h-53.2v-4.8c0,0,0-9.7,7.3-12.1
				C169,77,176,71.4,176,71.4"/>
		</g>
	</g>
	<g>
		<path class="st0" d="M250.8,78.7c16.9,9.7,33.9,7.3,33.9,31.5v4.8H178.3v-4.8c0-24.2,16.9-21.8,33.9-31.5H250.8z"/>
		<polygon class="st4" points="241.2,88.3 231.5,83.5 221.8,88.3 212.1,78.7 217,71.4 219.4,71.4 219.4,61.7 231.5,64.2 243.6,61.7 
			243.6,71.4 246,71.4 250.8,78.7 		"/>
		<path class="st3" d="M250.8,78.7c16.9,9.7,33.9,7.3,33.9,31.5v4.8H178.3v-4.8c0-24.2,16.9-21.8,33.9-31.5"/>
		<polygon class="st3" points="241.2,88.3 231.5,83.5 221.8,88.3 212.1,78.7 217,71.4 231.5,73.8 246,71.4 250.8,78.7 		"/>
		<line class="st3" x1="243.6" y1="61.7" x2="243.6" y2="71.4"/>
		<line class="st3" x1="219.4" y1="71.4" x2="219.4" y2="61.7"/>
		<line class="st3" x1="229.1" y1="105.3" x2="233.9" y2="105.3"/>
		<line class="st3" x1="229.1" y1="95.6" x2="233.9" y2="95.6"/>
		<g>
			<path class="st4" d="M253.3,30.3V40c-2.4,16.9-9.7,21.8-9.7,21.8c-4.8,2.4-12.1,2.4-12.1,2.4s-7.3,0-12.1-2.4
				c0,0-7.3-4.8-9.7-21.8v-9.7l9.7-4.8l24.2,9.7L253.3,30.3z"/>
			<path class="st2" d="M209.7,30.3c0-14.7,7.1-21.8,21.8-21.8s21.8,7.1,21.8,21.8l-9.7,4.8l-12.1-4.8l-12.1-4.8L209.7,30.3z"/>
			<path class="st3" d="M253.3,30.3V40c-2.4,16.9-9.7,21.8-9.7,21.8c-4.8,2.4-12.1,2.4-12.1,2.4s-7.3,0-12.1-2.4
				c0,0-7.3-4.8-9.7-21.8v-9.7"/>
			<path class="st3" d="M209.7,30.3c0-14.7,7.1-21.8,21.8-21.8s21.8,7.1,21.8,21.8"/>
			<polyline class="st3" points="209.7,30.3 219.4,25.4 231.5,30.3 243.6,35.1 253.3,30.3 			"/>
		</g>
	</g>
</g>
<g>
	<rect x="8.3" y="139.5" class="st4" width="70.5" height="68"/>
	<rect x="8.3" y="139.5" class="st3" width="70.5" height="68"/>
	<line class="st3" x1="8.3" y1="149.6" x2="78.8" y2="149.6"/>
	<line class="st3" x1="12.1" y1="144.5" x2="14.6" y2="144.5"/>
	<line class="st3" x1="17.1" y1="144.5" x2="19.6" y2="144.5"/>
	<line class="st3" x1="22.1" y1="144.5" x2="24.7" y2="144.5"/>
	<line class="st3" x1="28.4" y1="139.5" x2="28.4" y2="149.6"/>
	<line class="st3" x1="32.2" y1="144.5" x2="75" y2="144.5"/>
	<g>
		<rect x="14.6" y="155.9" class="st0" width="57.9" height="7.6"/>
	</g>
	<g>
		<rect x="14.6" y="165.9" class="st0" width="57.9" height="7.6"/>
	</g>
	<g>
		<rect x="14.6" y="176" class="st2" width="57.9" height="20.1"/>
	</g>
	<line class="st3" x1="17.1" y1="159.6" x2="29.7" y2="159.6"/>
	<line class="st3" x1="17.1" y1="169.7" x2="29.7" y2="169.7"/>
	<line class="st3" x1="59.9" y1="199.9" x2="72.5" y2="199.9"/>
	<line class="st3" x1="17.1" y1="179.8" x2="29.7" y2="179.8"/>
</g>
<g>
	<rect x="87.1" y="139.5" class="st4" width="68" height="68"/>
	<rect x="87.1" y="139.5" class="st3" width="68" height="68"/>
	<line class="st3" x1="87.1" y1="149.2" x2="155.1" y2="149.2"/>
	<line class="st3" x1="90.7" y1="144.4" x2="93.2" y2="144.4"/>
	<line class="st3" x1="95.6" y1="144.4" x2="98" y2="144.4"/>
	<line class="st3" x1="100.5" y1="144.4" x2="102.9" y2="144.4"/>
	<line class="st3" x1="106.5" y1="139.5" x2="106.5" y2="149.2"/>
	<line class="st3" x1="110.2" y1="144.4" x2="151.5" y2="144.4"/>
	<g>
		<rect x="102.9" y="155.3" class="st0" width="9.7" height="2.4"/>
		<rect x="102.9" y="160.1" class="st0" width="17" height="2.4"/>
		<rect x="102.9" y="184.4" class="st0" width="17" height="2.4"/>
		<rect x="102.9" y="165" class="st2" width="17" height="2.4"/>
		<rect x="122.3" y="165" class="st1" width="14.6" height="2.4"/>
		<rect x="110.2" y="169.9" class="st2" width="9.7" height="2.4"/>
		<rect x="122.3" y="169.9" class="st2" width="21.9" height="2.4"/>
		<rect x="110.2" y="179.6" class="st2" width="9.7" height="2.4"/>
		<rect x="122.3" y="179.6" class="st2" width="17" height="2.4"/>
		<rect x="110.2" y="174.7" class="st2" width="9.7" height="2.4"/>
		<rect x="122.3" y="174.7" class="st2" width="12.1" height="2.4"/>
		<rect x="102.9" y="189.3" class="st2" width="17" height="2.4"/>
		<rect x="122.3" y="189.3" class="st1" width="14.6" height="2.4"/>
		<rect x="110.2" y="194.1" class="st2" width="9.7" height="2.4"/>
		<rect x="122.3" y="194.1" class="st2" width="12.1" height="2.4"/>
		<rect x="110.2" y="199" class="st2" width="9.7" height="2.4"/>
		<rect x="122.3" y="199" class="st2" width="19.4" height="2.4"/>
		<line class="st3" x1="93.2" y1="156.5" x2="98" y2="156.5"/>
		<line class="st3" x1="93.2" y1="161.4" x2="98" y2="161.4"/>
		<line class="st3" x1="93.2" y1="166.2" x2="98" y2="166.2"/>
		<line class="st3" x1="93.2" y1="171.1" x2="98" y2="171.1"/>
		<line class="st3" x1="93.2" y1="175.9" x2="98" y2="175.9"/>
		<line class="st3" x1="93.2" y1="180.8" x2="98" y2="180.8"/>
		<line class="st3" x1="93.2" y1="185.6" x2="98" y2="185.6"/>
		<line class="st3" x1="93.2" y1="190.5" x2="98" y2="190.5"/>
		<line class="st3" x1="93.2" y1="195.4" x2="98" y2="195.4"/>
		<line class="st3" x1="93.2" y1="200.2" x2="98" y2="200.2"/>
	</g>
</g>
<g>
	<rect x="161.2" y="139.5" class="st1" width="68" height="68"/>
	<rect x="161.2" y="139.5" class="st7" width="68" height="68"/>
	<rect x="167.1" y="145.4" class="st4" width="56.3" height="56.3"/>
	<rect x="174.1" y="150.1" class="st0" width="7" height="46.9"/>
	<rect x="185.8" y="150.1" class="st0" width="7" height="46.9"/>
	<rect x="197.5" y="150.1" class="st0" width="7" height="46.9"/>
	<rect x="209.3" y="150.1" class="st0" width="7" height="46.9"/>
	<g>
		<rect x="172.9" y="184.1" class="st4" width="9.4" height="4.7"/>
		<rect x="172.9" y="184.1" class="st7" width="9.4" height="4.7"/>
	</g>
	<g>
		<rect x="184.6" y="160.6" class="st4" width="9.4" height="4.7"/>
		<rect x="184.6" y="160.6" class="st7" width="9.4" height="4.7"/>
	</g>
	<g>
		<rect x="196.4" y="179.4" class="st4" width="9.4" height="4.7"/>
		<rect x="196.4" y="179.4" class="st7" width="9.4" height="4.7"/>
	</g>
	<g>
		<rect x="208.1" y="155.9" class="st4" width="9.4" height="4.7"/>
		<rect x="208.1" y="155.9" class="st7" width="9.4" height="4.7"/>
	</g>
	<line class="st7" x1="211.6" y1="165.3" x2="214" y2="165.3"/>
	<line class="st7" x1="211.6" y1="170" x2="214" y2="170"/>
	<line class="st7" x1="199.9" y1="170" x2="202.2" y2="170"/>
	<line class="st7" x1="199.9" y1="174.7" x2="202.2" y2="174.7"/>
	<line class="st7" x1="188.2" y1="170" x2="190.5" y2="170"/>
	<line class="st7" x1="188.2" y1="174.7" x2="190.5" y2="174.7"/>
	<line class="st7" x1="176.4" y1="174.7" x2="178.8" y2="174.7"/>
	<line class="st7" x1="176.4" y1="179.4" x2="178.8" y2="179.4"/>
	<line class="st7" x1="176.4" y1="174.7" x2="178.8" y2="174.7"/>
	<line class="st7" x1="176.4" y1="179.4" x2="178.8" y2="179.4"/>
</g>
<g>
	<circle class="st4" cx="279.9" cy="175.9" r="30.6"/>
	<g>
		<path class="st2" d="M285.5,169.7c0,4-2.2,7.4-5.7,7.4c-3.4,0-5.7-3.4-5.7-7.4s1.1-6.2,5.7-6.2S285.5,165.7,285.5,169.7z"/>
		<path class="st0" d="M282.1,175.9l9.1,4.5c0,0,0,0.4,0,2.3c0,1.9-1.1,3.4-2.3,3.4h-18.1c-1.1,0-2.3-1.5-2.3-3.4s0-2.3,0-2.3
			l9.1-4.5"/>
		<path class="st3" d="M285.5,169.7c0,4-2.2,7.4-5.7,7.4c-3.4,0-5.7-3.4-5.7-7.4s1.1-6.2,5.7-6.2S285.5,165.7,285.5,169.7z"/>
		<path class="st3" d="M282.1,175.9l9.1,4.5c0,0,0,0.4,0,2.3c0,1.9-1.1,3.4-2.3,3.4h-18.1c-1.1,0-2.3-1.5-2.3-3.4s0-2.3,0-2.3
			l9.1-4.5"/>
	</g>
	<line class="st3" x1="279.9" y1="141.9" x2="279.9" y2="157.8"/>
	<line class="st3" x1="279.9" y1="194.1" x2="279.9" y2="209.9"/>
	<line class="st3" x1="261.7" y1="175.9" x2="245.9" y2="175.9"/>
	<line class="st3" x1="298" y1="175.9" x2="313.9" y2="175.9"/>
	<circle class="st3" cx="279.9" cy="175.9" r="30.6"/>
	<circle class="st3" cx="279.9" cy="175.9" r="23.8"/>
</g>
<g>
	<circle class="st2" cx="364.5" cy="175.9" r="34"/>
	<circle class="st0" cx="349.7" cy="161.1" r="18.1"/>
	<circle class="st4" cx="349.7" cy="161.1" r="12.8"/>
	<path class="st4" d="M342.2,183.4c-1.2,0-2.1-1-2.1-2.1c0-1.2,1-2.1,2.1-2.1h14.9c1.2,0,2.1,1,2.1,2.1c0,1.2-1,2.1-2.1,2.1H342.2z"
		/>
	<path class="st4" d="M353.9,183.4v21.3c0,2.3-1.9,4.3-4.3,4.3c-2.3,0-4.3-1.9-4.3-4.3v-21.3"/>
	<path class="st3" d="M353.9,183.4v21.3c0,2.3-1.9,4.3-4.3,4.3c-2.3,0-4.3-1.9-4.3-4.3v-21.3"/>
	<path class="st3" d="M342.2,183.4c-1.2,0-2.1-1-2.1-2.1c0-1.2,1-2.1,2.1-2.1h14.9c1.2,0,2.1,1,2.1,2.1c0,1.2-1,2.1-2.1,2.1H342.2z"
		/>
	<line class="st3" x1="349.7" y1="192.9" x2="349.7" y2="195.1"/>
	<line class="st3" x1="349.7" y1="197.2" x2="349.7" y2="199.3"/>
	<line class="st3" x1="349.7" y1="201.4" x2="349.7" y2="203.6"/>
	<circle class="st3" cx="349.7" cy="161.1" r="18.1"/>
	<circle class="st0" cx="379.4" cy="190.8" r="18.1"/>
	<circle class="st4" cx="379.4" cy="190.8" r="12.8"/>
	<path class="st4" d="M386.9,168.5c1.2,0,2.1,1,2.1,2.1c0,1.2-1,2.1-2.1,2.1H372c-1.2,0-2.1-1-2.1-2.1c0-1.2,1-2.1,2.1-2.1H386.9z"
		/>
	<path class="st4" d="M375.2,168.5v-21.3c0-2.3,1.9-4.3,4.3-4.3c2.3,0,4.3,1.9,4.3,4.3v21.3"/>
	<path class="st3" d="M375.2,168.5v-21.3c0-2.3,1.9-4.3,4.3-4.3c2.3,0,4.3,1.9,4.3,4.3v21.3"/>
	<path class="st3" d="M386.9,168.5c1.2,0,2.1,1,2.1,2.1c0,1.2-1,2.1-2.1,2.1H372c-1.2,0-2.1-1-2.1-2.1c0-1.2,1-2.1,2.1-2.1H386.9z"
		/>
	<line class="st3" x1="379.4" y1="158.9" x2="379.4" y2="156.8"/>
	<line class="st3" x1="379.4" y1="154.7" x2="379.4" y2="152.6"/>
	<line class="st3" x1="379.4" y1="150.4" x2="379.4" y2="148.3"/>
	<circle class="st3" cx="379.4" cy="190.8" r="18.1"/>
	<g>
		<path class="st3" d="M353.9,169.6v-12.8c0-1.8-1.4-3.2-3.2-3.2h-2.1c-1.8,0-3.2,1.4-3.2,3.2v12.8"/>
		<line class="st3" x1="353.9" y1="162.1" x2="345.4" y2="162.1"/>
	</g>
	<g>
		<path class="st3" d="M375.2,190.8h4.3h1.1c1.8,0,3.2,1.4,3.2,3.2v1.1c0,1.8-1.4,3.2-3.2,3.2h-1.1h-4.3v-14.9h5.3
			c1.8,0,3.2,1.4,3.2,3.2v1.1c0,1.8-1.4,3.2-3.2,3.2h-1.1"/>
	</g>
</g>
<g>
	<path d="M29.1,238c0-6.6-5.4-12-12-12s-12,5.4-12,12s5.4,12,12,12S29.1,244.6,29.1,238z M13.9,238v-2.3h1.4v-1.4
		c0-1.9,0.6-3.2,2.6-3.2h2.4v2.3h-1.7c-0.9,0-1.1,0.6-1.1,1.2v1.1h2.6l-0.4,2.3h-2.3v6.9h-2.3V238H13.9z"/>
</g>
<g>
	<g>
		<path d="M42.8,235.7c0-1.2-0.7-3.1-2.1-3.1c-0.4,0-0.9,0.2-1.2,0.6c-0.3,0.4-0.4,0.8-0.4,1.3c0,1.1,0.7,3,2.1,3
			c0.4,0,0.9-0.2,1.2-0.5C42.8,236.6,42.8,236,42.8,235.7z"/>
		<path d="M55.2,238c0-6.6-5.4-12-12-12s-12,5.4-12,12s5.4,12,12,12C49.9,250,55.2,244.6,55.2,238z M46.9,235.7h0.9v1.8h1.8v0.9
			h-1.8v1.8h-0.9v-1.8h-1.8v-0.9h1.8V235.7z M36.8,242.6c0-0.6,0.3-1.5,1.3-2.1c1.1-0.6,2.5-0.7,3.3-0.8c-0.2-0.3-0.5-0.6-0.5-1.2
			c0-0.3,0.1-0.5,0.2-0.7c-0.2,0-0.4,0-0.5,0c-1.8,0-2.8-1.3-2.8-2.7c0-0.8,0.4-1.7,1.1-2.3c1-0.8,2.1-0.9,3.1-0.9h3.5l-1.1,0.6
			h-1.1l0,0c0.4,0.3,1.2,1,1.2,2.3s-0.7,1.9-1.4,2.4c-0.2,0.2-0.5,0.5-0.5,0.8c0,0.4,0.3,0.6,0.4,0.7l0.6,0.5
			c0.8,0.6,1.4,1.2,1.4,2.4c0,1.6-1.6,3.2-4.5,3.2C38,245,36.8,243.8,36.8,242.6z"/>
		<path d="M41.9,240.2c-0.1,0-0.2,0-0.4,0s-1.1,0-1.8,0.3c-0.4,0.1-1.5,0.5-1.5,1.8c0,1.2,1.2,2.1,3,2.1c1.6,0,2.5-0.8,2.5-1.8
			C43.8,241.6,43.2,241.1,41.9,240.2z"/>
	</g>
</g>
<g>
	<path d="M69.9,226c-6.6,0-12,5.4-12,12s5.4,12,12,12s12-5.4,12-12S76.5,226,69.9,226z M65.4,246.1H62v-10.9h3.4V246.1z M63.7,233.8
		c-1.1,0-2-0.9-2-2s0.9-2,2-2c1.1,0,2,0.9,2,2C65.6,232.9,64.8,233.8,63.7,233.8z M78,246.1h-3.4v-5.3c0-1.3,0-2.9-1.8-2.9
		s-2,1.4-2,2.8v5.4h-3.4v-10.9h3.2v1.5l0,0c0.5-0.9,1.6-1.8,3.2-1.8c3.4,0,4,2.2,4,5.2C78,240.2,78,246.1,78,246.1z"/>
</g>
<g>
	<path d="M108.6,238c0-6.6-5.4-12-12-12s-12,5.4-12,12s5.4,12,12,12S108.6,244.6,108.6,238z M90.1,242.3c0.2,0,0.4,0,0.6,0
		c1.2,0,2.4-0.4,3.3-1.2c-1.2,0-2.1-0.8-2.5-2c0.2,0,0.3,0.1,0.5,0.1s0.5,0,0.7-0.1c-1.2-0.3-2.1-1.4-2.1-2.8l0,0
		c0.4,0.2,0.8,0.3,1.2,0.4c-0.7-0.5-1.2-1.4-1.2-2.4c0-0.5,0.1-1,0.4-1.4c1.3,1.7,3.3,2.9,5.5,3c0-0.2-0.1-0.4-0.1-0.6
		c0-1.6,1.2-2.8,2.7-2.8c0.8,0,1.5,0.4,1.9,0.9c0.6-0.1,1.2-0.3,1.7-0.6c-0.2,0.6-0.6,1.2-1.2,1.5c0.5-0.1,1-0.2,1.5-0.4
		c-0.4,0.6-0.8,1-1.3,1.4c0,0.1,0,0.2,0,0.4c0,3.7-2.7,7.9-7.5,7.9C92.7,243.5,91.3,243.1,90.1,242.3z"/>
</g>
<g>
	<g>
		<path d="M121.1,240.6c1.8-0.9,3.6-1.9,5.4-2.8c-1.8-0.9-3.6-1.9-5.4-2.8C121.1,236.9,121.1,238.8,121.1,240.6z"/>
		<path d="M123.3,226c-6.6,0-12,5.4-12,12s5.4,12,12,12c6.6,0,12-5.4,12-12S129.9,226,123.3,226z M131.5,242
			c-0.2,0.9-0.9,1.6-1.8,1.7c-2.1,0.2-4.2,0.2-6.3,0.2c-2.1,0-4.2,0-6.3-0.2c-0.9-0.1-1.6-0.8-1.8-1.7c-0.3-1.3-0.3-2.7-0.3-4
			s0-2.7,0.3-4c0.2-0.9,0.9-1.6,1.8-1.7c2.1-0.2,4.2-0.2,6.3-0.2c2.1,0,4.2,0,6.3,0.2c0.9,0.1,1.6,0.8,1.8,1.7
			c0.3,1.3,0.3,2.7,0.3,4S131.8,240.7,131.5,242z"/>
	</g>
</g>
<g>
	<path class="st8" d="M29.1,266c0-6.6-5.4-12-12-12s-12,5.4-12,12s5.4,12,12,12S29.1,272.6,29.1,266z M13.9,266v-2.3h1.4v-1.4
		c0-1.9,0.6-3.2,2.6-3.2h2.4v2.3h-1.7c-0.9,0-1.1,0.6-1.1,1.2v1.1h2.6l-0.4,2.3h-2.3v6.9h-2.3V266H13.9z"/>
</g>
<g>
	<g>
		<path class="st8" d="M42.8,263.7c0-1.2-0.7-3.1-2.1-3.1c-0.4,0-0.9,0.2-1.2,0.6s-0.4,0.8-0.4,1.3c0,1.1,0.7,3,2.1,3
			c0.4,0,0.9-0.2,1.2-0.5C42.8,264.6,42.8,264,42.8,263.7z"/>
		<path class="st8" d="M55.2,266c0-6.6-5.4-12-12-12s-12,5.4-12,12s5.4,12,12,12C49.9,278,55.2,272.6,55.2,266z M46.9,263.7h0.9v1.8
			h1.8v0.9h-1.8v1.8h-0.9v-1.8h-1.8v-0.9h1.8V263.7z M36.8,270.6c0-0.6,0.3-1.5,1.3-2.1c1.1-0.6,2.5-0.7,3.3-0.8
			c-0.2-0.3-0.5-0.6-0.5-1.2c0-0.3,0.1-0.5,0.2-0.7c-0.2,0-0.4,0-0.5,0c-1.8,0-2.8-1.3-2.8-2.7c0-0.8,0.4-1.7,1.1-2.3
			c1-0.8,2.1-0.9,3.1-0.9h3.5l-1.1,0.6h-1.1l0,0c0.4,0.3,1.2,1,1.2,2.3s-0.7,1.9-1.4,2.4c-0.2,0.2-0.5,0.5-0.5,0.8
			c0,0.4,0.3,0.6,0.4,0.7l0.6,0.5c0.8,0.6,1.4,1.2,1.4,2.4c0,1.6-1.6,3.2-4.5,3.2C38,273,36.8,271.8,36.8,270.6z"/>
		<path class="st8" d="M41.9,268.2c-0.1,0-0.2,0-0.4,0s-1.1,0-1.8,0.3c-0.4,0.1-1.5,0.5-1.5,1.8s1.2,2.1,3,2.1
			c1.6,0,2.5-0.8,2.5-1.8C43.8,269.6,43.2,269.1,41.9,268.2z"/>
	</g>
</g>
<g>
	<path class="st8" d="M69.9,254c-6.6,0-12,5.4-12,12s5.4,12,12,12s12-5.4,12-12S76.5,254,69.9,254z M65.4,274.1H62v-10.9h3.4V274.1z
		 M63.7,261.8c-1.1,0-2-0.9-2-2s0.9-2,2-2c1.1,0,2,0.9,2,2C65.6,260.9,64.8,261.8,63.7,261.8z M78,274.1h-3.4v-5.3
		c0-1.3,0-2.9-1.8-2.9s-2,1.4-2,2.8v5.4h-3.4v-10.9h3.2v1.5l0,0c0.5-0.9,1.6-1.8,3.2-1.8c3.4,0,4,2.2,4,5.2
		C78,268.2,78,274.1,78,274.1z"/>
</g>
<g>
	<path class="st8" d="M108.6,266c0-6.6-5.4-12-12-12s-12,5.4-12,12s5.4,12,12,12S108.6,272.6,108.6,266z M90.1,270.3
		c0.2,0,0.4,0,0.6,0c1.2,0,2.4-0.4,3.3-1.2c-1.2,0-2.1-0.8-2.5-2c0.2,0,0.3,0.1,0.5,0.1s0.5,0,0.7-0.1c-1.2-0.3-2.1-1.4-2.1-2.8l0,0
		c0.4,0.2,0.8,0.3,1.2,0.4c-0.7-0.5-1.2-1.4-1.2-2.4c0-0.5,0.1-1,0.4-1.4c1.3,1.7,3.3,2.9,5.5,3c0-0.2-0.1-0.4-0.1-0.6
		c0-1.6,1.2-2.8,2.7-2.8c0.8,0,1.5,0.4,1.9,0.9c0.6-0.1,1.2-0.3,1.7-0.6c-0.2,0.6-0.6,1.2-1.2,1.5c0.5-0.1,1-0.2,1.5-0.4
		c-0.4,0.6-0.8,1-1.3,1.4c0,0.1,0,0.2,0,0.4c0,3.7-2.7,7.9-7.5,7.9C92.7,271.5,91.3,271.1,90.1,270.3z"/>
</g>
<g>
	<g>
		<path class="st8" d="M121.1,268.6c1.8-0.9,3.6-1.9,5.4-2.8c-1.8-0.9-3.6-1.9-5.4-2.8C121.1,264.9,121.1,266.8,121.1,268.6z"/>
		<path class="st8" d="M123.3,254c-6.6,0-12,5.4-12,12s5.4,12,12,12c6.6,0,12-5.4,12-12S129.9,254,123.3,254z M131.5,270
			c-0.2,0.9-0.9,1.6-1.8,1.7c-2.1,0.2-4.2,0.2-6.3,0.2c-2.1,0-4.2,0-6.3-0.2c-0.9-0.1-1.6-0.8-1.8-1.7c-0.3-1.3-0.3-2.7-0.3-4
			s0-2.7,0.3-4c0.2-0.9,0.9-1.6,1.8-1.7c2.1-0.2,4.2-0.2,6.3-0.2c2.1,0,4.2,0,6.3,0.2c0.9,0.1,1.6,0.8,1.8,1.7
			c0.3,1.3,0.3,2.7,0.3,4S131.8,268.7,131.5,270z"/>
	</g>
</g>
<g>
	<g>
		<path class="st9" d="M152.5,248c-5.5,0-10-4.5-10-10s4.5-10,10-10s10,4.5,10,10S158,248,152.5,248z M152.5,228.7
			c-5.1,0-9.3,4.2-9.3,9.3s4.2,9.3,9.3,9.3s9.3-4.2,9.3-9.3S157.6,228.7,152.5,228.7z"/>
		<path class="st9" d="M151.2,241.5c-0.1,0-0.2,0-0.2-0.1c-0.1-0.1-0.1-0.3,0-0.5l3.1-3.1l-3.1-3.1c-0.1-0.1-0.1-0.3,0-0.5
			c0.1-0.1,0.3-0.1,0.5,0l3.3,3.3c0.1,0.1,0.1,0.3,0,0.5l-3.3,3.3C151.4,241.5,151.3,241.5,151.2,241.5z"/>
	</g>
</g>
<path class="st10" d="M190.2,239.5v3.7c0,0.2,0.1,0.4,0.2,0.6s0.3,0.2,0.6,0.2h3.7c0.2,0,0.4-0.1,0.6-0.2L208,231
	c0.3-0.3,0.3-0.8,0-1.1l-3.7-3.7c-0.3-0.3-0.8-0.3-1.1,0l-2.5,2.6L190.4,239C190.3,239.1,190.2,239.3,190.2,239.5z M203.8,227.9
	l2.6,2.6l-1.4,1.4l-2.6-2.6C202.3,229.3,203.8,227.9,203.8,227.9z M191.8,239.8l9.4-9.4l2.6,2.6l-9.4,9.4h-2.6
	C191.8,242.4,191.8,239.8,191.8,239.8z"/>
<circle class="st10" cx="183.9" cy="241.2" r="2"/>
<circle class="st10" cx="177.9" cy="241.2" r="2"/>
<circle class="st10" cx="171.9" cy="241.2" r="2"/>
<g>
	<polygon class="st2" points="84.6,430 99.6,445 107.1,425 127.1,432.5 127.1,412.5 147.1,412.5 139.6,392.5 159.6,385 144.6,370 
		159.6,355 139.6,347.5 147.1,327.5 127.1,327.5 127.1,307.5 107.1,315 99.6,295 84.6,310 69.6,295 62.1,315 42.1,307.5 42.1,327.5 
		22.1,327.5 29.6,347.5 9.6,355 24.6,370 9.6,385 29.6,392.5 22.1,412.5 42.1,412.5 42.1,432.5 62.1,425 69.6,445 	"/>
	<g>
		<path class="st3" d="M92.1,387.5H79.6c-4.1,0-7.5-3.4-7.5-7.5v-20c0-4.1,3.4-7.5,7.5-7.5h12.5"/>
		<line class="st3" x1="74.6" y1="370" x2="87.1" y2="370"/>
		<polyline class="st7" points="44.6,390 44.6,352.5 62.1,387.5 62.1,350 		"/>
		<polyline class="st7" points="99.6,350 99.6,387.5 112.1,365 124.6,387.5 124.6,350 		"/>
	</g>
	<polygon class="st7" points="84.6,430 99.6,445 107.1,425 127.1,432.5 127.1,412.5 147.1,412.5 139.6,392.5 159.6,385 144.6,370 
		159.6,355 139.6,347.5 147.1,327.5 127.1,327.5 127.1,307.5 107.1,315 99.6,295 84.6,310 69.6,295 62.1,315 42.1,307.5 42.1,327.5 
		22.1,327.5 29.6,347.5 9.6,355 24.6,370 9.6,385 29.6,392.5 22.1,412.5 42.1,412.5 42.1,432.5 62.1,425 69.6,445 	"/>
	<line class="st7" x1="82.1" y1="415" x2="87.1" y2="415"/>
	<line class="st7" x1="82.1" y1="325" x2="87.1" y2="325"/>
</g>
<g>
	<polygon class="st4" points="270.1,364.9 320.9,364.9 320.9,306.8 224.1,306.8 224.1,338.3 224.1,379.4 255.6,379.4 	"/>
	<g>
		<path class="st0" d="M243.5,410.9c16.9,9.7,33.9,7.3,33.9,31.5v4.8H170.9v-4.8c0-24.2,16.9-21.8,33.9-31.5H243.5z"/>
		<polygon class="st4" points="233.8,420.5 224.1,415.7 214.4,420.5 204.8,410.9 209.6,403.6 212,403.6 212,393.9 224.1,396.3 
			236.2,393.9 236.2,403.6 238.6,403.6 243.5,410.9 		"/>
		<path class="st3" d="M243.5,410.9c16.9,9.7,33.9,7.3,33.9,31.5v4.8H170.9v-4.8c0-24.2,16.9-21.8,33.9-31.5"/>
		<polygon class="st3" points="233.8,420.5 224.1,415.7 214.4,420.5 204.8,410.9 209.6,403.6 224.1,406 238.6,403.6 243.5,410.9 		
			"/>
		<line class="st3" x1="236.2" y1="393.9" x2="236.2" y2="403.6"/>
		<line class="st3" x1="212" y1="403.6" x2="212" y2="393.9"/>
		<line class="st3" x1="221.7" y1="437.5" x2="226.5" y2="437.5"/>
		<line class="st3" x1="221.7" y1="427.8" x2="226.5" y2="427.8"/>
		<g>
			<path class="st4" d="M245.9,362.5v9.7c-2.4,16.9-9.7,21.8-9.7,21.8c-4.8,2.4-12.1,2.4-12.1,2.4s-7.3,0-12.1-2.4
				c0,0-7.3-4.8-9.7-21.8v-9.7l9.7-4.8l24.2,9.7L245.9,362.5z"/>
			<path class="st2" d="M202.4,362.5c0-14.7,7.1-21.8,21.8-21.8s21.8,7.1,21.8,21.8l-9.7,4.8l-12.1-4.8l-12.1-4.8L202.4,362.5z"/>
			<path class="st3" d="M245.9,362.5v9.7c-2.4,16.9-9.7,21.8-9.7,21.8c-4.8,2.4-12.1,2.4-12.1,2.4s-7.3,0-12.1-2.4
				c0,0-7.3-4.8-9.7-21.8v-9.7"/>
			<path class="st3" d="M202.4,362.5c0-14.7,7.1-21.8,21.8-21.8s21.8,7.1,21.8,21.8"/>
			<polyline class="st3" points="202.4,362.5 212,357.6 224.1,362.5 236.2,367.3 245.9,362.5 			"/>
		</g>
	</g>
	<g>
		<polyline class="st3" points="255.6,379.4 270.1,364.9 320.9,364.9 320.9,306.8 224.1,306.8 224.1,333.4 		"/>
	</g>
	<line class="st3" x1="260.4" y1="335.9" x2="265.3" y2="335.9"/>
	<line class="st3" x1="270.1" y1="335.9" x2="274.9" y2="335.9"/>
	<line class="st3" x1="279.8" y1="335.9" x2="284.6" y2="335.9"/>
</g>
<g>
	<g>
		<rect x="392.9" y="323.5" class="st4" width="96.8" height="130.6"/>
		<rect x="392.9" y="323.5" class="st3" width="96.8" height="130.6"/>
		<line class="st3" x1="392.9" y1="342.9" x2="489.7" y2="342.9"/>
		<line class="st3" x1="419.5" y1="333.2" x2="482.4" y2="333.2"/>
	</g>
	<rect x="412.3" y="355" class="st0" width="65.3" height="24.2"/>
	<rect x="412.3" y="384" class="st1" width="21.8" height="38.7"/>
	<g>
		<path class="st4" d="M412.3,442.1V330.8c0-6.7-5.4-12.1-12.1-12.1h-48.4c-6.7,0-12.1,5.4-12.1,12.1v111.3
			c0,6.7,5.4,12.1,12.1,12.1h48.4C406.9,454.2,412.3,448.8,412.3,442.1z"/>
		<line class="st3" x1="339.7" y1="342.9" x2="412.3" y2="342.9"/>
		<line class="st3" x1="339.7" y1="430" x2="412.3" y2="430"/>
		<path class="st3" d="M412.3,442.1V330.8c0-6.7-5.4-12.1-12.1-12.1h-48.4c-6.7,0-12.1,5.4-12.1,12.1v111.3
			c0,6.7,5.4,12.1,12.1,12.1h48.4C406.9,454.2,412.3,448.8,412.3,442.1z"/>
		<line class="st3" x1="366.3" y1="330.8" x2="385.7" y2="330.8"/>
		<line class="st3" x1="371.1" y1="442.1" x2="380.8" y2="442.1"/>
		<rect x="346.9" y="350.2" class="st0" width="58.1" height="72.6"/>
	</g>
	<circle class="st4" cx="376" cy="381.6" r="16.9"/>
	<circle class="st3" cx="376" cy="381.6" r="16.9"/>
	<line class="st3" x1="366.3" y1="408.2" x2="385.7" y2="408.2"/>
	<line class="st3" x1="477.6" y1="439.7" x2="438.9" y2="439.7"/>
	<line class="st3" x1="434" y1="439.7" x2="412.3" y2="439.7"/>
	<line class="st3" x1="477.6" y1="430" x2="438.9" y2="430"/>
	<line class="st3" x1="434" y1="430" x2="412.3" y2="430"/>
	<rect x="438.9" y="384" class="st1" width="38.7" height="38.7"/>
</g>
<path d="M232.1,231.5l-0.6-0.6l-5,5l-5-5l-0.6,0.6l5,5l-5,5l0.6,0.6l5-5l5,5l0.6-0.6l-5-5L232.1,231.5z"/>
<g>
	<g>
		<path class="st11" d="M253.2,236.9h-8c-0.6,0-1,0.5-1,1c0,0.6,0.5,1,1,1h8c0.6,0,1-0.5,1-1C254.2,237.3,253.7,236.9,253.2,236.9z
			 M241.7,237.9l5.1-5.2c0.2-0.2,0.3-0.5,0.3-0.7c0-0.3-0.1-0.5-0.3-0.7c-0.4-0.4-1-0.4-1.4,0l-5.8,6c-0.4,0.4-0.4,1.1,0,1.5l5.8,6
			c0.4,0.4,1,0.4,1.4,0s0.4-1.1,0-1.5L241.7,237.9z"/>
	</g>
</g>
<g class="st12">
	<path d="M267.9,238.9c0-0.6-0.5-1-1-1h-8c-0.6,0-1,0.5-1,1c0,0.6,0.5,1,1,1h8C267.4,239.9,267.9,239.5,267.9,238.9z M272.5,238.2
		l-5.8-6c-0.4-0.4-1-0.4-1.4,0c-0.2,0.2-0.3,0.5-0.3,0.7c0,0.3,0.1,0.5,0.3,0.7l5.1,5.2l-5.1,5.2c-0.4,0.4-0.4,1.1,0,1.5
		s1,0.4,1.4,0l5.8-6C272.9,239.2,272.9,238.6,272.5,238.2z"/>
</g>
<g>
	<g>
		<path class="st4" d="M266.9,237.9c0-0.6-0.5-1-1-1h-8c-0.6,0-1,0.5-1,1c0,0.6,0.5,1,1,1h8C266.4,238.9,266.9,238.5,266.9,237.9z
			 M271.5,237.2l-5.8-6c-0.4-0.4-1-0.4-1.4,0c-0.2,0.2-0.3,0.5-0.3,0.7c0,0.3,0.1,0.5,0.3,0.7l5.1,5.2l-5.1,5.2
			c-0.4,0.4-0.4,1.1,0,1.5s1,0.4,1.4,0l5.8-6C271.9,238.2,271.9,237.6,271.5,237.2z"/>
	</g>
</g>
<g>
	<g>
		<path class="st11" d="M257.9,256.2c0,0.5,0.4,1,1,1h8c0.5,0,1-0.4,1-1c0-0.5-0.4-1-1-1h-8C258.4,255.2,257.9,255.6,257.9,256.2z
			 M265.3,261.6c-0.4,0.4-0.4,1.1,0,1.5s1,0.4,1.4,0l5.8-6c0.4-0.4,0.4-1.1,0-1.5l-5.8-6c-0.4-0.4-1-0.4-1.4,0
			c-0.2,0.2-0.3,0.4-0.3,0.7c0,0.2,0.1,0.5,0.3,0.7l5.1,5.2L265.3,261.6z"/>
	</g>
</g>
<g>
	<g>
		<path class="st11" d="M291.2,238h-2v2h2V238z M287.2,242h-2v2h2V242z M287.2,238h-2v2h2V238z M291.2,233v-1h-3v1h-4v-1h-3v1h-2v13
			h14v-13H291.2z M292.2,244.9h-12v-8h12V244.9z M283.2,238h-2v2h2V238z M283.2,242h-2v2h2V242z M291.2,242h-2v2h2V242z"/>
	</g>
</g>
<g class="st12">
	<path d="M245.2,258.2h8c0.5,0,1-0.4,1-1c0-0.5-0.4-1-1-1h-8c-0.5,0-1,0.4-1,1S244.7,258.2,245.2,258.2z M239.6,257.8l5.8,6
		c0.4,0.4,1,0.4,1.4,0s0.4-1.1,0-1.5l-5.1-5.2l5.1-5.2c0.2-0.2,0.3-0.4,0.3-0.7c0-0.2-0.1-0.5-0.3-0.7c-0.4-0.4-1-0.4-1.4,0l-5.8,6
		C239.2,256.9,239.2,257.5,239.6,257.8z"/>
</g>
<g>
	<g>
		<path class="st4" d="M246.2,257.2h8c0.5,0,1-0.4,1-1c0-0.5-0.4-1-1-1h-8c-0.5,0-1,0.4-1,1C245.2,256.8,245.7,257.2,246.2,257.2z
			 M240.6,256.8l5.8,6c0.4,0.4,1,0.4,1.4,0s0.4-1.1,0-1.5l-5.1-5.2l5.1-5.2c0.2-0.2,0.3-0.4,0.3-0.7c0-0.2-0.1-0.5-0.3-0.7
			c-0.4-0.4-1-0.4-1.4,0l-5.8,6C240.2,255.9,240.2,256.5,240.6,256.8z"/>
	</g>
</g>
<path class="st13" d="M304.2,233.5h43v46h-43c-1.7,0-3-1.3-3-3v-40C301.2,234.8,302.5,233.5,304.2,233.5z"/>
<path class="st4" d="M329.7,244.5h-2.9c-3.2,0-5.3,2.3-5.3,5.9v2.7h-2.9c-0.3,0-0.5,0.2-0.5,0.5v3.9c0,0.3,0.2,0.5,0.5,0.5h2.9v10
	c0,0.3,0.2,0.5,0.5,0.5h3.8c0.3,0,0.5-0.2,0.5-0.5v-10h3.4c0.3,0,0.5-0.2,0.5-0.5v-3.9c0-0.1,0-0.3-0.1-0.3
	c-0.1-0.1-0.2-0.1-0.3-0.1h-3.4v-2.3c0-1.1,0.2-1.7,1.6-1.7h1.9c0.3,0,0.5-0.2,0.5-0.5V245C330.2,244.7,330,244.5,329.7,244.5z"/>
<path class="st14" d="M360.3,233.2h43v46h-43c-1.7,0-3-1.3-3-3v-40C357.3,234.6,358.7,233.2,360.3,233.2z"/>
<path class="st4" d="M369.2,250.2c0,2,0.7,3.5,2.1,4.4c1.1,0.7,2.4,0.8,3.1,0.8c0.2,0,0.3,0,0.4,0c0,0-0.2,1.4,0.8,2.7l0,0
	c-1.8,0-7.6,0.4-7.6,5.1c0,4.8,5.4,5,6.4,5c0.1,0,0.1,0,0.1,0s0.1,0,0.2,0c0.7,0,2.5-0.1,4.1-0.9c2.2-1,3.2-2.8,3.2-5.3
	c0-2.4-1.7-3.8-2.9-4.9c-0.7-0.6-1.4-1.2-1.4-1.7s0.5-1,1.1-1.5c1-0.8,1.9-2,1.9-4.3c0-2-0.3-3.3-1.9-4.2c0.2-0.1,0.8-0.1,1.1-0.2
	c0.9-0.1,2.2-0.3,2.2-1v-0.1h-6.4C375.6,244.3,369.2,244.5,369.2,250.2z M379.5,262.5c0.1,1.9-1.5,3.3-4.1,3.5
	c-2.5,0.2-4.6-0.9-4.8-2.9c-0.1-0.9,0.4-1.8,1.2-2.5c0.8-0.7,1.9-1.2,3.2-1.3c0.1,0,0.3,0,0.4,0
	C377.8,259.4,379.4,260.7,379.5,262.5z M377.8,248.9c0.6,2.2-0.3,4.4-1.8,4.8c-0.2,0-0.4,0.1-0.5,0.1c-1.4,0-2.8-1.4-3.3-3.3
	c-0.3-1.1-0.3-2,0.1-2.9c0.3-0.9,0.9-1.5,1.6-1.7c0.2,0,0.4-0.1,0.5-0.1C376.1,246,377.2,246.6,377.8,248.9z M388.6,253.6v-4.1H386
	v4.1h-4.2v2.6h4.2v4.1h2.6v-4.1h4.2v-2.6H388.6z"/>
<path class="st15" d="M416.3,233.5h43v46h-43c-1.7,0-3-1.3-3-3v-40C413.3,234.8,414.6,233.5,416.3,233.5z"/>
<path class="st4" d="M448.3,249.2c-0.9,0.4-1.8,0.6-2.9,0.7c1.1-0.6,1.8-1.5,2.1-2.6c-0.9,0.6-1.9,0.9-3.1,1.2
	c-0.9-0.9-2.3-1.5-3.6-1.5c-2.6,0-4.8,2.2-4.8,4.8c0,0.4,0,0.7,0.2,1c-4-0.1-7.8-2-10.2-5c-0.5,0.7-0.6,1.5-0.6,2.5
	c0,1.6,0.9,3.1,2.3,3.9c-0.8,0-1.5-0.3-2.3-0.6l0,0c0,2.3,1.6,4.2,3.9,4.7c-0.4,0.1-0.9,0.1-1.3,0.1c-0.3,0-0.6,0-0.9-0.1
	c0.6,1.9,2.4,3.4,4.7,3.4c-1.7,1.3-3.8,2-6.2,2c-0.4,0-0.7,0-1.2,0c2.3,1.3,4.8,2.2,7.5,2.2c9,0,13.9-7.3,13.9-13.6
	c0-0.1,0-0.4,0-0.6C446.8,251.1,447.7,250.2,448.3,249.2z"/>
<g>
	<polygon class="st16" points="443.7,139.1 443,138.4 431.7,149.7 420.4,138.4 419.7,139.1 431,150.4 419.7,161.7 420.4,162.4 
		431.7,151.1 443,162.4 443.7,161.7 432.4,150.4 	"/>
</g>
<g>
	<polygon class="st17" points="443.7,181.1 443,180.4 431.7,191.7 420.4,180.4 419.7,181.1 431,192.4 419.7,203.7 420.4,204.4 
		431.7,193.1 443,204.4 443.7,203.7 432.4,192.4 	"/>
</g>
<g>
	<path class="st18" d="M16.5,469.6c0.6-3.8,5.4-7.9,9.2-8c0.3,0,0.5-0.1,0.7-0.3c0.2-0.1,0.3-0.2,0.4-0.4c1.3-2.4,0.6-4.4-1.6-5.9
		c-2.5-1.8-6.5,0-8.5,1.7c-5.1,4.2-10.2,11.4-9.9,18.3c-0.9,4.6-0.7,9.6,0.6,13.7c0.9,2.6,3.4,3.9,6,4.1s8,1,10.4-0.6
		s2.5-4.6,2.8-7.2c0.3-2.9,1-8.3-1.4-10.5C22.7,472.1,15.7,474.5,16.5,469.6z"/>
	<path class="st18" d="M45.3,469.6c0.6-3.8,5.4-7.9,9.2-8c0.3,0,0.5-0.1,0.7-0.3c0.2-0.1,0.3-0.2,0.4-0.4c1.3-2.4,0.6-4.4-1.6-5.9
		c-2.5-1.8-6.5,0-8.5,1.7c-5.1,4.2-10.2,11.4-9.9,18.3c-0.9,4.6-0.7,9.6,0.6,13.7c0.9,2.6,3.4,3.9,6,4.1s8,1,10.4-0.6
		s2.5-4.6,2.8-7.2c0.3-2.9,1-8.3-1.4-10.5C51.4,472.1,44.4,474.5,45.3,469.6z"/>
</g>
<g>
	<path class="st18" d="M108.7,478.6c-0.6,3.8-5.4,7.9-9.2,8c-0.3,0-0.5,0.1-0.7,0.3c-0.2,0.1-0.3,0.2-0.4,0.4
		c-1.3,2.4-0.6,4.4,1.6,5.9c2.5,1.8,6.5,0,8.5-1.7c5.1-4.2,10.2-11.4,9.9-18.3c0.9-4.6,0.7-9.6-0.6-13.7c-0.9-2.6-3.4-3.9-6-4.1
		s-8-1-10.4,0.6s-2.5,4.6-2.8,7.2c-0.3,2.9-1,8.3,1.4,10.5C102.5,476.1,109.5,473.7,108.7,478.6z"/>
	<path class="st18" d="M79.9,478.6c-0.6,3.8-5.4,7.9-9.2,8c-0.3,0-0.5,0.1-0.7,0.3c-0.2,0.1-0.3,0.2-0.4,0.4
		c-1.3,2.4-0.6,4.4,1.6,5.9c2.5,1.8,6.5,0,8.5-1.7c5.1-4.2,10.2-11.4,9.9-18.3c0.9-4.6,0.7-9.6-0.6-13.7c-0.9-2.6-3.4-3.9-6-4.1
		s-8-1-10.4,0.6s-2.5,4.6-2.8,7.2c-0.3,2.9-1,8.3,1.4,10.5C73.8,476.1,80.8,473.7,79.9,478.6z"/>
</g>
<path class="st19" d="M165,470l-10,20h20L165,470"/>
<path class="st20" d="M197.2,470l-10,20h20L197.2,470"/>
<path class="st19" d="M368.2,470l-10,20h20L368.2,470"/>
<path class="st21" d="M241,490l10-20h-20L241,490"/>
<path class="st20" d="M273.2,490l10-20h-20L273.2,490"/>
<g>
	<circle class="st4" cx="84" cy="590" r="67.5"/>
	<g>
		<path class="st2" d="M96.5,576.3c0,8.8-4.9,16.3-12.5,16.3s-12.5-7.5-12.5-16.3S74,562.5,84,562.5S96.5,567.5,96.5,576.3z"/>
		<path class="st0" d="M89,590l20,10c0,0,0,0.9,0,5s-2.5,7.5-5,7.5H64c-2.5,0-5-3.4-5-7.5s0-5,0-5l20-10"/>
		<path class="st3" d="M96.5,576.3c0,8.8-4.9,16.3-12.5,16.3s-12.5-7.5-12.5-16.3S74,562.5,84,562.5S96.5,567.5,96.5,576.3z"/>
		<path class="st3" d="M89,590l20,10c0,0,0,0.9,0,5s-2.5,7.5-5,7.5H64c-2.5,0-5-3.4-5-7.5s0-5,0-5l20-10"/>
	</g>
	<line class="st3" x1="84" y1="515" x2="84" y2="550"/>
	<line class="st3" x1="84" y1="630" x2="84" y2="665"/>
	<line class="st3" x1="44" y1="590" x2="9" y2="590"/>
	<line class="st3" x1="124" y1="590" x2="159" y2="590"/>
	<circle class="st3" cx="84" cy="590" r="67.5"/>
	<circle class="st3" cx="84" cy="590" r="52.5"/>
</g>
<polygon class="st2" points="244,651.7 259,666.7 266.5,646.7 286.5,654.2 286.5,634.2 306.5,634.2 299,614.2 319,606.7 304,591.7 
	319,576.7 299,569.2 306.5,549.2 286.5,549.2 286.5,529.2 266.5,536.7 259,516.7 244,531.7 229,516.7 221.5,536.7 201.5,529.2 
	201.5,549.2 181.5,549.2 189,569.2 169,576.7 184,591.7 169,606.7 189,614.2 181.5,634.2 201.5,634.2 201.5,654.2 221.5,646.7 
	229,666.7 "/>
<polygon class="st7" points="244,650 259,665 266.5,645 286.5,652.5 286.5,632.5 306.5,632.5 299,612.5 319,605 304,590 319,575 
	299,567.5 306.5,547.5 286.5,547.5 286.5,527.5 266.5,535 259,515 244,530 229,515 221.5,535 201.5,527.5 201.5,547.5 181.5,547.5 
	189,567.5 169,575 184,590 169,605 189,612.5 181.5,632.5 201.5,632.5 201.5,652.5 221.5,645 229,665 "/>
<line class="st7" x1="241.5" y1="635" x2="246.5" y2="635"/>
<line class="st7" x1="241.5" y1="545" x2="246.5" y2="545"/>
<g>
	<path class="st22" d="M199.6,599.6v-16c0-6.5,1.8-11.6,7.5-11.6s7.5,5.2,7.5,11.6v16c0,6.4-1.7,11.7-7.5,11.7
		C201.2,611.3,199.6,606.1,199.6,599.6z M212,600.4v-17.5c0-4.5-1.1-8.2-4.9-8.2c-3.8,0-4.9,3.7-4.9,8.2v17.5c0,4.5,1.1,8.2,4.9,8.2
		C210.9,608.6,212,604.9,212,600.4z"/>
	<path class="st22" d="M219.1,610.7v-38.2h10.2v2.7h-7.6v14.5h5.5v2.6h-5.5v18.5L219.1,610.7L219.1,610.7z"/>
	<path class="st22" d="M231.2,610.7v-38.2h10.2v2.7h-7.6v14.5h5.5v2.6h-5.5v18.5L231.2,610.7L231.2,610.7z"/>
	<path class="st22" d="M243.4,610.7v-38.2h10.2v2.7H246v14.5h5.5v2.6H246V608h7.6v2.7H243.4z"/>
	<path class="st22" d="M257.1,610.7v-38.2h7.8c5.1,0,6.3,4.6,6.3,9.9c0,3.9-0.9,7.7-4.1,9.3l4.5,19.1h-2.8l-4.3-18.6h-4.9v18.6
		L257.1,610.7L257.1,610.7z M259.7,589.4h5.2c3.1,0,3.7-3.5,3.7-7.1c0-3.8-0.7-7.1-3.7-7.1h-5.2V589.4z"/>
	<path class="st22" d="M274.2,601.5l2.3-0.9c0.4,4,1.8,8,5.2,8c2.7,0,4.2-2,4.2-5.5c0-3.2-1.8-6-3.9-8.9l-4.6-6.3
		c-1.7-2.4-3.1-4.8-3.1-7.6c0-5.1,2.8-8.2,6.8-8.2c3.9,0,6.2,2.9,7,8.3l0.1,0.4l-2.2,0.9v-0.3c-0.4-3.6-2-6.5-4.8-6.5
		c-2.5,0-4.2,1.6-4.2,5.1c0,2.2,1,4.1,2.4,6.1l4.3,6.1c2.3,3.3,4.9,6.4,4.9,10.8c0,5.6-3,8.5-6.9,8.5
		C277.2,611.3,274.9,606.8,274.2,601.5z"/>
</g>
<g>
	<path class="st4" d="M443.7,652.9V527.1c0-6.7-5.4-12.1-12.1-12.1h-58.1c-6.7,0-12.1,5.4-12.1,12.1v125.8c0,6.7,5.4,12.1,12.1,12.1
		h58.1C438.3,665,443.7,659.6,443.7,652.9z"/>
	<line class="st3" x1="361.5" y1="529.5" x2="443.7" y2="529.5"/>
	<line class="st3" x1="361.5" y1="650.5" x2="443.7" y2="650.5"/>
	<path class="st3" d="M361.5,570.6v82.3c0,6.7,5.4,12.1,12.1,12.1h58.1c6.7,0,12.1-5.4,12.1-12.1V619"/>
	<path class="st3" d="M443.7,585.2v-58.1c0-6.7-5.4-12.1-12.1-12.1h-58.1c-6.7,0-12.1,5.4-12.1,12.1v9.7"/>
	<rect x="368.7" y="536.8" class="st5" width="67.7" height="106.5"/>
	<line class="st3" x1="422" y1="573.1" x2="426.8" y2="573.1"/>
	<rect x="373.6" y="551.3" class="st4" width="58.1" height="38.7"/>
	<rect x="339.7" y="541.6" class="st1" width="67.7" height="24.2"/>
	<rect x="376" y="602.1" class="st3" width="53.2" height="24.2"/>
	<g>
		<rect x="397.8" y="590" class="st0" width="67.7" height="24.2"/>
		<rect x="397.8" y="590" class="st1" width="67.7" height="24.2"/>
	</g>
	<line class="st3" x1="373.6" y1="636" x2="388.1" y2="636"/>
	<line class="st3" x1="397.8" y1="636" x2="407.4" y2="636"/>
	<path class="st3" d="M417.1,633.5"/>
	<path class="st3" d="M407.4,633.5"/>
	<line class="st3" x1="417.1" y1="636" x2="431.6" y2="636"/>
	<line class="st3" x1="349.4" y1="553.7" x2="354.2" y2="553.7"/>
	<line class="st3" x1="359.1" y1="553.7" x2="363.9" y2="553.7"/>
	<line class="st3" x1="368.7" y1="553.7" x2="373.6" y2="553.7"/>
	<g>
		<polyline class="st3" points="424.4,565.8 424.4,582.7 397.8,582.7 		"/>
	</g>
	<line class="st3" x1="407.4" y1="602.1" x2="431.6" y2="602.1"/>
	<line class="st3" x1="436.5" y1="602.1" x2="446.2" y2="602.1"/>
</g>
<g>
	<polygon class="st4" points="98.3,783 81.9,788.5 65.5,783 65.5,772.1 81.9,774.9 98.3,772.1 	"/>
	<path class="st0" d="M109.2,796.7c19.1,10.9,46.4,8.2,46.4,35.5V843H8.3v-10.9c0-27.3,27.3-24.5,46.4-35.5"/>
	<polygon class="st4" points="92.8,810.3 81.9,799.4 71,810.3 54.6,796.7 60.1,783 81.9,788.5 103.7,783 109.2,796.7 	"/>
	<path class="st2" d="M51.9,728.5c0-16.6,13.4-24.5,30-24.5s30,8,30,24.5L98.3,734l-16.4-5.5L65.5,723L51.9,728.5z"/>
	<path class="st4" d="M111.9,728.5v16.4c-2.7,19.1-13.6,27.3-13.6,27.3c-5.5,2.7-16.4,2.7-16.4,2.7s-10.9,0-16.4-2.7
		c0,0-10.9-8.2-13.6-27.3v-16.4l13.6-5.5l16.4,5.5l16.4,5.5L111.9,728.5z"/>
	<path class="st5" d="M51.9,755.8c-7.5,0-13.6-6.1-13.6-13.6s6.1-13.6,13.6-13.6"/>
	<path class="st5" d="M111.9,728.5c7.5,0,13.6,6.1,13.6,13.6s-6.1,13.6-13.6,13.6"/>
	<path class="st3" d="M106.4,796.7"/>
	<path class="st3" d="M109.2,796.7c19.1,10.9,46.4,8.2,46.4,35.5V843H8.3v-10.9c0-27.3,27.3-24.5,46.4-35.5"/>
	<polygon class="st3" points="92.8,810.3 81.9,799.4 71,810.3 54.6,796.7 60.1,783 81.9,788.5 103.7,783 109.2,796.7 	"/>
	<line class="st3" x1="98.3" y1="772.1" x2="98.3" y2="783"/>
	<line class="st3" x1="65.5" y1="783" x2="65.5" y2="772.1"/>
	<path class="st3" d="M111.9,728.5v16.4c-2.7,19.1-13.6,27.3-13.6,27.3c-5.5,2.7-16.4,2.7-16.4,2.7s-10.9,0-16.4-2.7
		c0,0-10.9-8.2-13.6-27.3v-16.4"/>
	<path class="st3" d="M51.9,728.5c0-16.6,13.4-24.5,30-24.5s30,8,30,24.5"/>
	<path class="st3" d="M111.9,728.5c7.5,0,13.6,6.1,13.6,13.6s-6.1,13.6-13.6,13.6"/>
	<path class="st3" d="M41,733.9c0-27.3,18.3-40.9,40.9-40.9s40.9,13.6,40.9,40.9"/>
	<path class="st3" d="M81.9,761.2c24.5,0,30-5.5,30-5.5"/>
	<line class="st3" x1="79.2" y1="832.1" x2="84.6" y2="832.1"/>
	<line class="st3" x1="79.2" y1="821.2" x2="84.6" y2="821.2"/>
	<g>
		<path class="st3" d="M54.6,755.8h-2.7c-7.5,0-13.6-6.1-13.6-13.6s6.1-13.6,13.6-13.6"/>
	</g>
	<polyline class="st3" points="51.9,728.5 65.5,723 81.9,728.5 98.3,733.9 111.9,728.5 	"/>
</g>
<g>
	<rect x="196.8" y="698.1" class="st4" width="150" height="144.6"/>
	<rect x="196.8" y="698.1" class="st3" width="150" height="144.6"/>
	<line class="st3" x1="196.8" y1="719.6" x2="346.8" y2="719.6"/>
	<line class="st3" x1="204.8" y1="708.8" x2="210.2" y2="708.8"/>
	<line class="st3" x1="215.5" y1="708.8" x2="220.9" y2="708.8"/>
	<line class="st3" x1="226.3" y1="708.8" x2="231.6" y2="708.8"/>
	<line class="st3" x1="239.7" y1="698.1" x2="239.7" y2="719.6"/>
	<line class="st3" x1="247.7" y1="708.8" x2="338.8" y2="708.8"/>
	<g>
		<path class="st3" d="M309.3,791.9c0,4.4-3.6,8-8,8h-2.7c-4.4,0-8-3.6-8-8v-21.4c0-4.4,3.6-8,8-8h2.7c4.4,0,8,3.6,8,8V791.9z"/>
		<g>
			<path class="st3" d="M282.5,799.9h-10.7c-4.4,0-8-3.6-8-8v-21.4c0-4.4,3.6-8,8-8h10.7"/>
			<line class="st3" x1="263.8" y1="781.2" x2="277.2" y2="781.2"/>
		</g>
		<path class="st3" d="M234.3,791.9c0,4.4,3.6,8,8,8h2.7c4.4,0,8-3.6,8-8c0,0,0-5.4-2.7-8c-2.7-2.7-5.4-2.7-5.4-2.7h-2.7
			c0,0-2.7,0-5.4-2.7s-2.7-8-2.7-8c0-4.4,3.6-8,8-8h2.7c4.4,0,8,3.6,8,8"/>
	</g>
	<line class="st3" x1="215.5" y1="781.2" x2="220.9" y2="781.2"/>
	<line class="st3" x1="322.7" y1="781.2" x2="328" y2="781.2"/>
	<g>
		<rect x="204.8" y="727.6" class="st1" width="133.9" height="26.8"/>
		<rect x="210.2" y="733" class="st2" width="26.8" height="5.4"/>
		<rect x="242.3" y="733" class="st2" width="32.1" height="5.4"/>
		<rect x="210.2" y="743.7" class="st2" width="48.2" height="5.4"/>
		<rect x="263.8" y="743.7" class="st2" width="48.2" height="5.4"/>
		<rect x="317.3" y="743.7" class="st2" width="16.1" height="5.4"/>
	</g>
	<g>
		<rect x="204.8" y="808" class="st0" width="133.9" height="26.8"/>
		<rect x="210.2" y="813.3" class="st5" width="32.1" height="5.4"/>
		<rect x="210.2" y="824" class="st5" width="26.8" height="5.4"/>
		<rect x="242.3" y="824" class="st5" width="32.1" height="5.4"/>
		<rect x="247.7" y="813.3" class="st5" width="16.1" height="5.4"/>
		<rect x="317.3" y="813.3" class="st5" width="16.1" height="5.4"/>
		<rect x="269.1" y="813.3" class="st5" width="42.9" height="5.4"/>
	</g>
</g>
<g>
	<rect x="12.1" y="919.5" class="st4" width="150" height="82.3"/>
	<polygon class="st1" points="87.1,960.6 12.1,1001.7 12.1,919.5 	"/>
	<g>
		<polygon class="st1" points="137.9,932.7 137.9,1001.7 162.1,1001.7 162.1,919.5 		"/>
		<polygon class="st2" points="12.1,1001.7 137.9,1001.7 137.9,932.7 		"/>
	</g>
	<polyline class="st3" points="140.3,919.5 162.1,919.5 162.1,1001.7 12.1,1001.7 12.1,919.5 33.9,919.5 	"/>
	<polygon class="st4" points="137.9,934 87.1,960.6 36.3,934 36.3,871.1 118.6,871.1 137.9,890.4 	"/>
	<line class="st3" x1="162.1" y1="919.5" x2="12.1" y2="1001.7"/>
	<line class="st3" x1="12.1" y1="919.5" x2="87.1" y2="960.6"/>
	<polyline class="st3" points="137.9,890.4 118.6,890.4 118.6,871.1 	"/>
	<polyline class="st3" points="36.3,934 36.3,871.1 118.6,871.1 137.9,890.4 137.9,934 	"/>
	<line class="st7" x1="43.6" y1="880.7" x2="111.3" y2="880.7"/>
	<line class="st7" x1="43.6" y1="890.4" x2="111.3" y2="890.4"/>
	<line class="st7" x1="43.6" y1="900.1" x2="128.2" y2="900.1"/>
	<line class="st7" x1="43.6" y1="909.8" x2="128.2" y2="909.8"/>
	<line class="st7" x1="43.6" y1="919.5" x2="111.3" y2="919.5"/>
	<line class="st7" x1="43.6" y1="929.1" x2="128.2" y2="929.1"/>
</g>
<g>
	<g>
		<rect x="194.1" y="874.3" class="st4" width="138.1" height="133.3"/>
		<polyline class="st3" points="246.5,1005.2 196.5,1005.2 196.5,876.6 329.8,876.6 329.8,921.9 		"/>
		<line class="st3" x1="196.5" y1="895.7" x2="329.8" y2="895.7"/>
		<line class="st3" x1="203.6" y1="886.2" x2="208.4" y2="886.2"/>
		<line class="st3" x1="213.2" y1="886.2" x2="217.9" y2="886.2"/>
		<line class="st3" x1="222.7" y1="886.2" x2="227.5" y2="886.2"/>
		<line class="st3" x1="234.6" y1="876.6" x2="234.6" y2="895.7"/>
		<line class="st3" x1="241.7" y1="886.2" x2="322.7" y2="886.2"/>
		<rect x="203.6" y="902.8" class="st2" width="119" height="95.2"/>
	</g>
	<g>
		
			<rect x="313.7" y="990.8" transform="matrix(0.7071 -0.7071 0.7071 0.7071 -611.6927 521.5986)" class="st4" width="20.2" height="16.8"/>
		
			<rect x="254.3" y="931.3" transform="matrix(0.7071 -0.7071 0.7071 0.7071 -587.0265 462.2007)" class="st4" width="20.2" height="16.8"/>
		
			<rect x="255.9" y="989.2" transform="matrix(0.7071 -0.7071 0.7071 0.7071 -629.1823 479.5579)" class="st4" width="16.8" height="20.2"/>
		
			<rect x="315.5" y="929.6" transform="matrix(0.7071 -0.7071 0.7071 0.7071 -569.5935 504.2707)" class="st4" width="16.8" height="20.2"/>
		<g>
			<polygon class="st4" points="344.1,969.5 344.1,979 329.8,979 329.8,960 344.1,960 			"/>
			<polygon class="st3" points="344.1,969.5 344.1,979 329.8,979 329.8,960 344.1,960 			"/>
		</g>
		<g>
			<polygon class="st4" points="294.1,919.5 303.6,919.5 303.6,933.8 284.6,933.8 284.6,919.5 			"/>
			<polygon class="st3" points="294.1,919.5 303.6,919.5 303.6,933.8 284.6,933.8 284.6,919.5 			"/>
		</g>
		<g>
			<polygon class="st4" points="294.1,1005.2 303.6,1005.2 303.6,1019.5 284.6,1019.5 284.6,1005.2 			"/>
			<polygon class="st3" points="294.1,1005.2 303.6,1005.2 303.6,1019.5 284.6,1019.5 284.6,1005.2 			"/>
		</g>
		<g>
			<polygon class="st4" points="244.1,969.5 244.1,960 258.4,960 258.4,979 244.1,979 			"/>
			<polygon class="st3" points="244.1,969.5 244.1,960 258.4,960 258.4,979 244.1,979 			"/>
		</g>
		
			<rect x="313.7" y="990.8" transform="matrix(0.7071 -0.7071 0.7071 0.7071 -611.6927 521.5986)" class="st3" width="20.2" height="16.8"/>
		
			<rect x="254.3" y="931.3" transform="matrix(0.7071 -0.7071 0.7071 0.7071 -587.0265 462.2007)" class="st3" width="20.2" height="16.8"/>
		
			<rect x="255.9" y="989.2" transform="matrix(0.7071 -0.7071 0.7071 0.7071 -629.1823 479.5579)" class="st3" width="16.8" height="20.2"/>
		
			<rect x="315.5" y="929.6" transform="matrix(0.7071 -0.7071 0.7071 0.7071 -569.5935 504.2707)" class="st3" width="16.8" height="20.2"/>
		<circle class="st0" cx="294.1" cy="969.5" r="38.1"/>
		<circle class="st4" cx="294.1" cy="969.5" r="23.8"/>
		<circle class="st3" cx="294.1" cy="969.5" r="23.8"/>
		<circle class="st3" cx="294.1" cy="969.5" r="38.1"/>
		<circle class="st3" cx="294.1" cy="969.5" r="11.9"/>
		<line class="st3" x1="291.7" y1="969.5" x2="296.5" y2="969.5"/>
	</g>
</g>
<g>
	<path class="st4" d="M24.3,1134.2c0,13.3,10.8,24.1,24.1,24.1h80.4v-10.7H48.4c-7.4,0-13.4-6-13.4-13.4s6-13.4,13.4-13.4h93.8
		c7.5,0,13.9-4.4,16.9-10.7H48.4C35.1,1110.1,24.3,1120.9,24.3,1134.2z"/>
	<path class="st2" d="M160.9,1051.2H45.7l-8-21.4H10.9v10.7H27l21.4,69.6h110.7c1.2-2.4,1.8-5.2,1.8-8L160.9,1051.2L160.9,1051.2z"
		/>
	<g>
		<path class="st3" d="M128.7,1147.6H48.4c-7.4,0-13.4-6-13.4-13.4s6-13.4,13.4-13.4h93.8c10.4,0,18.8-8.4,18.8-18.8v-50.9H45.7
			l-8-21.4H10.9v10.7H27l21.4,69.6c-13.3,0-24.1,10.8-24.1,24.1c0,13.3,10.8,24.1,24.1,24.1h80.4"/>
	</g>
	<circle class="st5" cx="144.8" cy="1153" r="16.1"/>
	<circle class="st3" cx="144.8" cy="1153" r="16.1"/>
	<circle class="st5" cx="64.5" cy="1153" r="16.1"/>
	<circle class="st3" cx="64.5" cy="1153" r="16.1"/>
	<line class="st3" x1="48.4" y1="1110.1" x2="158.2" y2="1110.1"/>
	<line class="st3" x1="61.8" y1="1153" x2="67.1" y2="1153"/>
	<line class="st3" x1="142.1" y1="1153" x2="147.5" y2="1153"/>
	<g>
		<line class="st3" x1="61.8" y1="1067.3" x2="75.2" y2="1067.3"/>
		<line class="st3" x1="85.9" y1="1067.3" x2="99.3" y2="1067.3"/>
		<line class="st3" x1="110" y1="1067.3" x2="123.4" y2="1067.3"/>
		<line class="st3" x1="134.1" y1="1067.3" x2="147.5" y2="1067.3"/>
		<line class="st3" x1="61.8" y1="1080.6" x2="75.2" y2="1080.6"/>
		<line class="st3" x1="85.9" y1="1080.6" x2="99.3" y2="1080.6"/>
		<line class="st3" x1="110" y1="1080.6" x2="123.4" y2="1080.6"/>
		<line class="st3" x1="134.1" y1="1080.6" x2="147.5" y2="1080.6"/>
		<line class="st3" x1="61.8" y1="1094" x2="75.2" y2="1094"/>
		<line class="st3" x1="85.9" y1="1094" x2="99.3" y2="1094"/>
		<line class="st3" x1="110" y1="1094" x2="123.4" y2="1094"/>
		<line class="st3" x1="134.1" y1="1094" x2="147.5" y2="1094"/>
	</g>
</g>
<g>
	<path class="st2" d="M288.2,1117.8l46.6,46.6c0,8.6-6.9,15.5-15.5,15.5l-46.6-46.6"/>
	<g>
		<circle class="st0" cx="241.6" cy="1086.8" r="56.9"/>
		<circle class="st4" cx="241.6" cy="1086.8" r="46.6"/>
		<circle class="st6" cx="241.6" cy="1086.8" r="56.9"/>
	</g>
	<line class="st3" x1="301.1" y1="1148.9" x2="306.3" y2="1148.9"/>
	<line class="st3" x1="308.9" y1="1156.6" x2="314" y2="1156.6"/>
	<line class="st3" x1="316.6" y1="1164.4" x2="321.8" y2="1164.4"/>
	<path class="st3" d="M288.2,1117.8l46.6,46.6c0,8.6-6.9,15.5-15.5,15.5l-46.6-46.6"/>
	<g>
		<path class="st5" d="M249.4,1086.8l18.1,10.3c0,0,0,0.9,0,5.2c0,4.3-2.6,7.8-5.2,7.8h-41.4c-2.6,0-5.2-3.5-5.2-7.8s0-5.2,0-5.2
			l18.1-10.3"/>
		<path class="st2" d="M254.5,1072.6c0,9.1-5.1,16.8-12.9,16.8c-7.9,0-12.9-7.8-12.9-16.8c0-9.1,2.6-14.2,12.9-14.2
			S254.5,1063.5,254.5,1072.6z"/>
		<path class="st3" d="M254.5,1072.6c0,9.1-5.1,16.8-12.9,16.8c-7.9,0-12.9-7.8-12.9-16.8c0-9.1,2.6-14.2,12.9-14.2
			S254.5,1063.5,254.5,1072.6z"/>
		<path class="st3" d="M249.4,1086.8l18.1,10.3c0,0,0,0.9,0,5.2c0,4.3-2.6,7.8-5.2,7.8h-41.4c-2.6,0-5.2-3.5-5.2-7.8s0-5.2,0-5.2
			l18.1-10.3"/>
	</g>
</g>
<g>
	<ellipse class="st0" cx="422" cy="1160.9" rx="55.6" ry="24.2"/>
	<path class="st5" d="M443.7,1160.9c0,5.2-9.7,9.7-21.8,9.7s-21.8-4.4-21.8-9.7c0-5.2,9.7-9.7,21.8-9.7S443.7,1155.7,443.7,1160.9z"
		/>
	<path class="st2" d="M467.9,1081.1c0,33.9-46,79.8-46,79.8s-46-46-46-79.8c0-25.4,20.6-46,46-46S467.9,1055.7,467.9,1081.1z"/>
	<path class="st3" d="M467.9,1081.1c0,33.9-46,79.8-46,79.8s-46-46-46-79.8c0-25.4,20.6-46,46-46S467.9,1055.7,467.9,1081.1z"/>
	<circle class="st4" cx="422" cy="1081.1" r="29"/>
	<circle class="st3" cx="422" cy="1081.1" r="16.9"/>
	<path class="st3" d="M455.8,1141.7c13.2,4.4,21.8,11.4,21.8,19.2c0,13.4-24.9,24.2-55.6,24.2s-55.6-10.8-55.6-24.2
		c0-7.8,8.5-14.8,21.8-19.2"/>
	<line class="st3" x1="419.5" y1="1081.1" x2="424.4" y2="1081.1"/>
</g>
<g>
	<circle class="st23" cx="87.8" cy="1278.4" r="75"/>
	<circle class="st24" cx="55" cy="1245.5" r="39.9"/>
	<circle class="st4" cx="55" cy="1245.5" r="28.1"/>
	<path class="st4" d="M38.7,1294.8c-2.6,0-4.6-2.1-4.6-4.6s2.1-4.6,4.6-4.6h32.9c2.6,0,4.6,2.1,4.6,4.6s-2.1,4.6-4.6,4.6H38.7z"/>
	<path class="st4" d="M64.4,1294.8v46.9c0,5.1-4.2,9.4-9.4,9.4c-5.1,0-9.4-4.2-9.4-9.4v-46.9"/>
	<path class="st3" d="M64.4,1294.8v46.9c0,5.1-4.2,9.4-9.4,9.4c-5.1,0-9.4-4.2-9.4-9.4v-46.9"/>
	<path class="st3" d="M38.7,1294.8c-2.6,0-4.6-2.1-4.6-4.6s2.1-4.6,4.6-4.6h32.9c2.6,0,4.6,2.1,4.6,4.6s-2.1,4.6-4.6,4.6H38.7z"/>
	<line class="st3" x1="55" y1="1315.9" x2="55" y2="1320.5"/>
	<line class="st3" x1="55" y1="1325.3" x2="55" y2="1329.9"/>
	<line class="st3" x1="55" y1="1334.7" x2="55" y2="1339.3"/>
	<circle class="st3" cx="55" cy="1245.5" r="39.9"/>
	<circle class="st24" cx="120.7" cy="1311.2" r="39.9"/>
	<circle class="st4" cx="120.7" cy="1311.2" r="28.1"/>
	<path class="st4" d="M137,1261.9c2.6,0,4.6,2.1,4.6,4.6c0,2.6-2.1,4.6-4.6,4.6h-32.9c-2.6,0-4.6-2.1-4.6-4.6c0-2.6,2.1-4.6,4.6-4.6
		H137z"/>
	<path class="st4" d="M111.3,1261.9V1215c0-5.1,4.2-9.4,9.4-9.4c5.1,0,9.4,4.2,9.4,9.4v46.9"/>
	<path class="st3" d="M111.3,1261.9V1215c0-5.1,4.2-9.4,9.4-9.4c5.1,0,9.4,4.2,9.4,9.4v46.9"/>
	<path class="st3" d="M137,1261.9c2.6,0,4.6,2.1,4.6,4.6c0,2.6-2.1,4.6-4.6,4.6h-32.9c-2.6,0-4.6-2.1-4.6-4.6c0-2.6,2.1-4.6,4.6-4.6
		H137z"/>
	<line class="st3" x1="120.7" y1="1240.9" x2="120.7" y2="1236.2"/>
	<line class="st3" x1="120.7" y1="1231.5" x2="120.7" y2="1226.8"/>
	<line class="st3" x1="120.7" y1="1222" x2="120.7" y2="1217.4"/>
	<circle class="st3" cx="120.7" cy="1311.2" r="39.9"/>
	<g>
		<path class="st3" d="M64.4,1264.3v-28.1c0-3.9-3.1-7-7-7h-4.6c-3.9,0-7,3.1-7,7v28.1"/>
		<line class="st3" x1="64.4" y1="1247.9" x2="45.7" y2="1247.9"/>
	</g>
	<g>
		<path class="st3" d="M111.3,1311.2h9.4h2.4c3.9,0,7,3.1,7,7v2.4c0,3.9-3.1,7-7,7h-2.4h-9.4v-32.9H123c3.9,0,7,3.1,7,7v2.4
			c0,3.9-3.1,7-7,7h-2.4"/>
	</g>
</g>
<polygon class="st20" points="335.9,470 339,476.6 345.9,477.6 340.9,482.8 342.1,490 335.9,486.6 329.8,490 330.9,482.8 
	325.9,477.6 332.8,476.6 "/>
<g>
	<g>
		<g>
			<path class="st21" d="M314.6,481.7c-2.3-0.7-3.2-1.7-3.2-1.7l-0.1,0.1c-0.7,0.6-1.4,1-2.1,1h-0.1c-0.7,0-1.4-0.4-2.1-1l-0.1-0.1
				c0,0-0.9,0.9-3.2,1.7c-3.4,1.3-2.4,6.4-2.4,6.4c0.1,0.6,0.2,0.8,0.2,0.8c3.4,1.5,11.8,1.5,15.1,0c0.1,0,0.1-0.2,0.2-0.8
				C316.9,488,318,483,314.6,481.7z"/>
			<path class="st21" d="M312.7,475.2L312.7,475.2c-0.2-0.2-0.2-0.2-0.2-0.2s0.3-1.7,0.1-2.5c-0.4-1.3-2.9-2.1-3.4-2.2l-0.3-0.1
				c0,0-0.4-0.1-0.8,0.1c-0.3,0.1-1.8,0.8-2.3,2.1c-0.3,0.8,0.1,2.5,0.1,2.5s0,0-0.2,0.2l0,0c-0.1,0.1-0.1,0.6,0,1.1
				s0.3,0.6,0.3,0.7c0.4,1.9,1.8,3.5,3.2,3.5s2.7-1.6,3.1-3.5c0-0.1,0.2-0.2,0.3-0.7C312.8,475.8,312.8,475.3,312.7,475.2z"/>
		</g>
	</g>
</g>
<g>
	<circle class="st0" cx="264.4" cy="1274.9" r="71.4"/>
	<g>
		<path class="st4" d="M271.6,1222.5l16.7,9.5c0,0,0,0.8,0,4.8c0,3.9-2.4,7.1-4.8,7.1h-38.1c-2.4,0-4.8-3.2-4.8-7.1
			c0-3.9,0-4.8,0-4.8l16.7-9.5"/>
		<path class="st2" d="M276.3,1209.4c0,8.3-4.7,15.5-11.9,15.5c-7.2,0-11.9-7.1-11.9-15.5c0-8.3,2.4-13.1,11.9-13.1
			S276.3,1201.1,276.3,1209.4z"/>
		<path class="st3" d="M276.3,1209.4c0,8.3-4.7,15.5-11.9,15.5c-7.2,0-11.9-7.1-11.9-15.5c0-8.3,2.4-13.1,11.9-13.1
			S276.3,1201.1,276.3,1209.4z"/>
		<path class="st3" d="M271.6,1222.5l16.7,9.5c0,0,0,0.8,0,4.8c0,3.9-2.4,7.1-4.8,7.1h-38.1c-2.4,0-4.8-3.2-4.8-7.1
			c0-3.9,0-4.8,0-4.8l16.7-9.5"/>
	</g>
	<g>
		<path class="st4" d="M226.3,1303.4l16.7,9.5c0,0,0,0.8,0,4.8c0,3.9-2.4,7.1-4.8,7.1h-38.1c-2.4,0-4.8-3.2-4.8-7.1
			c0-3.9,0-4.8,0-4.8l16.7-9.5"/>
		<path class="st2" d="M231.1,1290.3c0,8.3-4.7,15.5-11.9,15.5c-7.2,0-11.9-7.1-11.9-15.5s2.4-13.1,11.9-13.1
			C228.7,1277.3,231.1,1282,231.1,1290.3z"/>
		<path class="st3" d="M231.1,1290.3c0,8.3-4.7,15.5-11.9,15.5c-7.2,0-11.9-7.1-11.9-15.5s2.4-13.1,11.9-13.1
			C228.7,1277.3,231.1,1282,231.1,1290.3z"/>
		<path class="st3" d="M226.3,1303.4l16.7,9.5c0,0,0,0.8,0,4.8c0,3.9-2.4,7.1-4.8,7.1h-38.1c-2.4,0-4.8-3.2-4.8-7.1
			c0-3.9,0-4.8,0-4.8l16.7-9.5"/>
	</g>
	<g>
		<path class="st4" d="M316.8,1303.4l16.7,9.5c0,0,0,0.8,0,4.8c0,3.9-2.4,7.1-4.8,7.1h-38.1c-2.4,0-4.8-3.2-4.8-7.1
			c0-3.9,0-4.8,0-4.8l16.7-9.5"/>
		<path class="st2" d="M321.6,1290.3c0,8.3-4.7,15.5-11.9,15.5c-7.2,0-11.9-7.1-11.9-15.5s2.4-13.1,11.9-13.1
			S321.6,1282,321.6,1290.3z"/>
		<path class="st3" d="M321.6,1290.3c0,8.3-4.7,15.5-11.9,15.5c-7.2,0-11.9-7.1-11.9-15.5s2.4-13.1,11.9-13.1
			S321.6,1282,321.6,1290.3z"/>
		<path class="st3" d="M316.8,1303.4l16.7,9.5c0,0,0,0.8,0,4.8c0,3.9-2.4,7.1-4.8,7.1h-38.1c-2.4,0-4.8-3.2-4.8-7.1
			c0-3.9,0-4.8,0-4.8l16.7-9.5"/>
	</g>
	<line class="st3" x1="264.4" y1="1255.8" x2="264.4" y2="1274.9"/>
	<line class="st3" x1="264.4" y1="1274.9" x2="245.4" y2="1289.2"/>
	<line class="st3" x1="264.4" y1="1274.9" x2="283.5" y2="1289.2"/>
</g>
</svg>
